<?xml version="1.0" encoding="UTF-8"?>
<svg id="Layer_1" data-name="Layer 1" xmlns="http://www.w3.org/2000/svg" width="890" height="340.96" viewBox="0 0 890 340.96">
  <path d="M785.79.34c-63.16,4.94-106.79,57.45-102.79,120.21,4.48,70.35,62.44,112.93,131.23,102.23,26.96-4.19,52.63-20.29,68.7-42.1l-30.56-27.57c-2.01-.44-6.54,6.73-8.34,8.46-43.12,41.33-109.61,17.48-114.02-43.03-4.73-64.86,65.78-100.81,112.52-56.52,1.81,1.72,6.04,8.35,7.84,7.96,2.11-.46,29.67-29.27,29.67-31.43-21.44-27.63-59.76-40.91-94.25-38.21Z" fill="#fefefe"/>
  <polygon points="49.5 4.05 0 4.05 0 220.05 45 220.05 45 80.05 113.49 199.06 180 80.05 180 219.55 181.5 221.05 225 221.05 225 4.05 175.5 4.05 113.99 121.05 49.5 4.05" fill="#fefefe"/>
  <path d="M315,4.05h-47v217h47v-89h92c.27.73-1,1.19-1,1.5v86l1.5,1.5h45.5V6.55c0-.21.7-.53.81-1,.02-.35-1.16-1.5-1.31-1.5h-46.5v86h-91V4.05Z" fill="#fefefe"/>
  <path d="M593.5,4.05h-97.5v217h47v-82h22l49.98,81.52c6.11.85,12.41.51,18.57.53,4.01,0,7.9,0,11.91,0,6.85,0,13.71-.09,20.54-.05l-53.99-86.5c33.89-10.3,51.89-46.23,43.28-80.28-7.33-28.99-32.63-47.67-61.79-50.21Z" fill="#fefefe"/>
  <rect x="734" y="274.05" width="8" height="51" fill="#fefefe"/>
  <path d="M116,275.05h-8v50h8v-20.5c0-2.35,4.77-5.35,7.34-5.21,2.93.15,6.66,3.4,6.66,6.21v19.5h8v-22.5c0-.98-3.44-6.64-4.47-7.53-3.83-3.31-9.9-3.48-14.28-1.23-2.17,1.11-1.51,3-3.24,3.26v-22Z" fill="#fefefe"/>
  <path d="M0,277.05v48h8v-31l12.49,23.01,3,1.06,2.4-1.68,13.11-23.39v32h8v-48c-3.05.24-6.78-1.03-9.05,1.45l-13.96,26.55c-2.15-1.61-3.83-4.95-5.17-7.32-2.09-3.72-8.13-17.99-10.23-19.77s-6-.66-8.59-.91Z" fill="#fefefe"/>
  <polygon points="324 277.05 290 277.05 290 285.06 303 285.05 303 325.05 311 325.05 311 285.05 324 285.06 324 277.05" fill="#fefefe"/>
  <polygon points="374 277.05 366 277.05 366 325.05 374 325.05 374 304.05 395 304.05 395 325.05 403 325.05 403 277.05 395 277.05 395 296.05 374 296.05 374 277.05" fill="#fefefe"/>
  <path d="M440.5,277.05c-5.45-.65-11.92.47-17.5,0v48h8v-19c1.46.08,3.04-.24,4.48.02,4.2.75,9.33,14.87,12.5,18.5l9.02.47-11.98-19.5c15.19-6.37,11.6-26.58-4.52-28.5Z" fill="#fefefe"/>
  <path d="M541,316.07l-6.37-3.95c-13.15,15.3-34.54.11-27.33-18.26,3.55-9.04,14.82-12.63,23.06-7.65,1.53.92,3.59,4.11,5.02,3.79l4.56-4.57c-10.63-15.83-39.31-8.69-41.85,10.21-3.7,27.48,25.58,41.25,42.92,20.43Z" fill="#fefefe"/>
  <path d="M791.63,277.19c-2.36.78-1.99,4.93-1.15,6.88,10.32,7.14,13.19-10.84,1.15-6.88Z" fill="#fefefe"/>
  <path d="M760,300.05v17.5c0,6.22,9.93,8.83,15,7.5v-7c-1.87,1.33-7,.75-7-1.5v-16.5h7s0-6,0-6h-7.01s-.56-10.01-.56-10.01h-6.44s-.43,9.08-.43,9.08l-5.57.93v6.01s5.01,0,5.01,0Z" fill="#fefefe"/>
  <path d="M91,325.05v-24.5c0-4.32-9.56-8.31-13.5-8.31-7.34,0-20.59,7.9-7.13,10.89,3.34-6.81,13.91-5.14,13.62,2.91-7.21-.11-20.43-1.63-21.07,8.46-.79,12.44,13.36,14.76,21.07,7.54l.06,2.94,6.95.07Z" fill="#fefefe"/>
  <path d="M168.75,292.29c-19.01,1.24-22.16,27.54-4.29,32.81s31.03-17.8,16.04-29.04c-2.92-2.19-8.1-4.01-11.75-3.77Z" fill="#fefefe"/>
  <path d="M232,325.05v-20.5c0-.55-1.5-5.17-1.93-6.07-3.6-7.56-14.22-7.86-20.06-2.43l-.06-2.94-7.95-.07v32h8v-21.5c0-2.41,7.5-5.21,10.31-4.53.62.15,3.69,6,3.69,6.53v19.5h8Z" fill="#fefefe"/>
  <path d="M279,312.05c2.71-27.08-36.08-25.99-31.94,1.44,1.06,7.05,8.7,12.14,15.46,12.57,3.94.25,13.35-2.44,14.48-6.53-5.49-6.22-6.64-1.15-11.58-.5-4.52.59-9.35-2.48-10.42-6.98h24Z" fill="#fefefe"/>
  <path d="M570.77,292.3c-26.35,1.12-18.8,41.84,7.21,32.23,16.79-6.21,11.87-33.04-7.21-32.23Z" fill="#fefefe"/>
  <path d="M604,293.05v32h8v-20.5c0-2.21,4.81-5.67,7.43-5.5,2.8.18,6.57,3.94,6.57,6.5v19.5l6.37-.13,1.4-1.32c-2.13-6.79.29-15.2-.81-22-1.48-9.12-14.53-12.42-20.46-5.55l-.54-2.93-7.95-.07Z" fill="#fefefe"/>
  <path d="M673,299.04c.37-1.95-1.33-2.91-2.66-3.82-7.16-4.94-21.22-3.83-22.33,6.43-1.21,11.13,19.11,9.36,17.95,14.8-.84,3.91-12.7,3.94-13.02-1.35-8.2,2.49-7.49,6.32.06,9.45,15.15,6.28,28.51-9.45,15.93-16.93-2.57-1.53-13.6-2.86-12.92-6.04.99-4.58,9.79-2,12.35.39l4.63-2.93Z" fill="#fefefe"/>
  <path d="M844,325.05v-23.5c0-.71-1.81-3.68-2.46-4.54-4.75-6.28-13.14-6.15-18.53-.96l-.06-2.94-7.95-.07v32h8v-20.5c0-1.78,4.26-5.36,6.47-5.4s6.53,2.21,6.53,4.4v21.5h8Z" fill="#fefefe"/>
  <path d="M890,329.55v-36.5h-7.01s0,4,0,4c-7.13-8.09-20.29-4.93-23.32,5.18-4.98,16.62,9.03,31.23,23.32,18.82.95,7.12-3.15,14.61-11.28,12.81-2.65-.59-4.37-3.84-6.2-3.83-2.5,1.38-6.75,2.34-4.54,5.55,6.56,9.57,26.97,5.65,29.03-6.03Z" fill="#fefefe"/>
  <path d="M696,293.05h-8v24.5c0,2.86,5.71,7.64,8.72,8.27,3.5.73,11.48,0,12.29-3.77l1.04,2.94,7.95.06v-30.5c0-2.09-7.25-1.49-9-1.5v21.5c0,.22-2.45,3.41-2.68,3.56-3.53,2.21-10.32.41-10.32-3.56v-21.5Z" fill="#fefefe"/>
  <rect x="790" y="293.05" width="8" height="32" fill="#fefefe"/>
  <polygon points="49.5 4.05 113.99 121.05 175.5 4.05 225 4.05 225 221.05 181.5 221.05 180 219.55 180 80.05 113.49 199.06 45 80.05 45 220.05 0 220.05 0 4.05 49.5 4.05" fill="#531e4c"/>
  <path d="M593.5,4.05c29.16,2.54,54.45,21.23,61.79,50.21,8.61,34.05-9.39,69.98-43.28,80.28l53.99,86.5c-6.83-.04-13.69.05-20.54.05-4.01,0-7.9,0-11.91,0-6.16-.01-12.46.33-18.57-.53l-49.98-81.52h-22v82h-47V4.05h97.5Z" fill="#531e4c"/>
  <path d="M576.5,44.05h-33l-1.5,1.5v54.5h42.5c1.43,0,11.65-2.83,13.24-3.71,3.8-2.12,9.31-9.1,10.73-13.31,5.41-15.98-.75-31.84-17.45-36.5-3.77-1.05-10.83-2.2-14.52-2.48Z" fill="#531e4c"/>
  <path d="M315,4.05v86h91V4.05h46.5c.15,0,1.32,1.15,1.31,1.5-.11.47-.81.79-.81,1v214.5h-45.5l-1.5-1.5v-86c0-.31,1.27-.77,1-1.5h-92v89h-47V4.05h47Z" fill="#531e4c"/>
  <path d="M785.79.34c34.5-2.7,72.81,10.58,94.25,38.21,0,2.17-27.56,30.97-29.67,31.43-1.81.4-6.03-6.24-7.84-7.96-46.74-44.28-117.26-8.34-112.52,56.52,4.42,60.51,70.9,84.36,114.02,43.03,1.81-1.73,6.33-8.9,8.34-8.46l30.56,27.57c-16.08,21.81-41.75,37.9-68.7,42.1-68.79,10.7-126.74-31.88-131.23-102.23-4-62.76,39.63-115.27,102.79-120.21Z" fill="#531e4c"/>
  <path d="M0,277.05c2.6.25,6.56-.81,8.59.91s8.14,16.05,10.23,19.77c1.33,2.37,3.02,5.71,5.17,7.32l13.96-26.55c2.27-2.48,6.01-1.21,9.05-1.45v48h-8v-32l-13.11,23.39-2.4,1.68-3-1.06-12.49-23.01v31H0v-48Z" fill="#531e4c"/>
  <polygon points="374 277.05 374 296.05 395 296.05 395 277.05 403 277.05 403 325.05 395 325.05 395 304.05 374 304.05 374 325.05 366 325.05 366 277.05 374 277.05" fill="#531e4c"/>
  <path d="M440.5,277.05c16.12,1.92,19.7,22.13,4.52,28.5l11.98,19.5-9.02-.47c-3.17-3.64-8.3-17.75-12.5-18.5-1.43-.26-3.02.06-4.48-.02v19h-8v-48c5.58.47,12.05-.65,17.5,0Z" fill="#531e4c"/>
  <path d="M430,299.05c7.02-.27,16.46,2.33,16.09-7.52-.32-8.47-9.65-7.62-16.09-7.48v15Z" fill="#531e4c"/>
  <path d="M890,329.55c-2.06,11.68-22.46,15.6-29.03,6.03-2.2-3.21,2.04-4.18,4.54-5.55,1.83,0,3.54,3.24,6.2,3.83,8.12,1.8,12.23-5.69,11.28-12.81-14.29,12.41-28.3-2.2-23.32-18.82,3.03-10.11,16.18-13.27,23.32-5.18v-4.01s7.01,0,7.01,0v36.5Z" fill="#531e4c"/>
  <path d="M873.76,299.23c-12.3,1.59-8.18,24.29,3.98,19.06,9.14-3.93,5.88-20.34-3.98-19.06Z" fill="#531e4c"/>
  <path d="M541,316.07c-17.34,20.81-46.62,7.05-42.92-20.43,2.55-18.9,31.22-26.04,41.85-10.21l-4.56,4.57c-1.42.32-3.49-2.87-5.02-3.79-8.24-4.97-19.52-1.39-23.06,7.65-7.21,18.37,14.18,33.57,27.33,18.26l6.37,3.95Z" fill="#531e4c"/>
  <path d="M116,275.05v22c1.73-.25,1.08-2.14,3.24-3.26,4.38-2.25,10.45-2.08,14.28,1.23,1.03.89,4.47,6.55,4.47,7.53v22.5h-8v-19.5c0-2.82-3.73-6.06-6.66-6.21-2.57-.13-7.34,2.86-7.34,5.21v20.5h-8v-50h8Z" fill="#531e4c"/>
  <path d="M279,312.05h-24c1.07,4.49,5.89,7.57,10.42,6.98,4.94-.65,6.09-5.72,11.58.5-1.13,4.09-10.54,6.78-14.48,6.53-6.76-.43-14.4-5.52-15.46-12.57-4.14-27.43,34.65-28.52,31.94-1.44Z" fill="#531e4c"/>
  <path d="M271,306.05c-1.43-9.45-14.53-9.5-16,0h16Z" fill="#531e4c"/>
  <path d="M168.75,292.29c3.65-.24,8.82,1.58,11.75,3.77,14.99,11.24,2.38,34.47-16.04,29.04s-14.72-31.57,4.29-32.81Z" fill="#531e4c"/>
  <path d="M167.73,299.22c-10.45,2.26-8.28,21.03,2.69,19.82,13.19-1.45,9.79-22.53-2.69-19.82Z" fill="#531e4c"/>
  <path d="M696,293.05v21.5c0,3.96,6.79,5.77,10.32,3.56.23-.14,2.68-3.33,2.68-3.56v-21.5c1.75,0,9-.59,9,1.5v30.5l-7.95-.06-1.04-2.94c-.82,3.78-8.8,4.5-12.29,3.77-3.01-.63-8.72-5.41-8.72-8.27v-24.5h8Z" fill="#531e4c"/>
  <path d="M570.77,292.3c19.08-.81,24,26.02,7.21,32.23-26.01,9.62-33.56-31.1-7.21-32.23Z" fill="#531e4c"/>
  <path d="M569.74,299.24c-13.81,2.65-6.46,26.41,6.22,18.27,8.14-5.23,3.71-20.18-6.22-18.27Z" fill="#531e4c"/>
  <path d="M91,325.05l-6.95-.07-.06-2.94c-7.7,7.23-21.85,4.91-21.07-7.54.64-10.09,13.87-8.57,21.07-8.46.29-8.06-10.28-9.72-13.62-2.91-13.46-2.99-.21-10.89,7.13-10.89,3.94,0,13.5,4,13.5,8.31v24.5Z" fill="#531e4c"/>
  <path d="M84,311.05c-3.89.18-10.44-1.08-13.07,2.43-2.99,3.99,2.23,4.48,3.68,7.63,5.13-.99,10.59-4.03,9.39-10.06Z" fill="#531e4c"/>
  <polygon points="324 277.05 324 285.06 311 285.05 311 325.05 303 325.05 303 285.05 290 285.06 290 277.05 324 277.05" fill="#531e4c"/>
  <path d="M844,325.05h-8v-21.5c0-2.19-4.37-4.44-6.53-4.4s-6.47,3.62-6.47,5.4v20.5h-8v-32l7.95.07.06,2.94c5.39-5.2,13.78-5.32,18.53.96.65.86,2.46,3.83,2.46,4.54v23.5Z" fill="#531e4c"/>
  <path d="M232,325.05h-8v-19.5c0-.53-3.07-6.38-3.69-6.53-2.81-.68-10.31,2.12-10.31,4.53v21.5h-8v-32l7.95.07.06,2.94c5.84-5.43,16.46-5.13,20.06,2.43.43.9,1.93,5.52,1.93,6.07v20.5Z" fill="#531e4c"/>
  <path d="M604,293.05l7.95.07.54,2.93c5.93-6.87,18.98-3.57,20.46,5.55,1.1,6.79-1.31,15.21.81,22l-1.4,1.32-6.37.13v-19.5c0-2.55-3.77-6.32-6.57-6.5-2.62-.17-7.43,3.29-7.43,5.5v20.5h-8v-32Z" fill="#531e4c"/>
  <path d="M673,299.04l-4.63,2.93c-2.56-2.38-11.36-4.97-12.35-.39-.69,3.19,10.35,4.52,12.92,6.04,12.59,7.48-.78,23.21-15.93,16.93-7.55-3.13-8.27-6.97-.06-9.45.32,5.29,12.18,5.26,13.02,1.35,1.16-5.44-19.16-3.68-17.95-14.8,1.12-10.26,15.17-11.37,22.33-6.43,1.32.91,3.03,1.87,2.66,3.82Z" fill="#531e4c"/>
  <path d="M760,300.05h-5.01s0-6,0-6l5.57-.93.43-9.07h6.44s.56,10.01.56,10.01h7.01s0,6,0,6h-7s0,16.5,0,16.5c0,2.25,5.13,2.83,6.99,1.5v7c-5.07,1.33-14.99-1.29-14.99-7.5v-17.5Z" fill="#531e4c"/>
  <rect x="734" y="274.05" width="8" height="51" fill="#531e4c"/>
  <rect x="790" y="293.05" width="8" height="32" fill="#531e4c"/>
  <path d="M791.63,277.19c12.05-3.96,9.17,14.01-1.15,6.88-.85-1.94-1.21-6.1,1.15-6.88Z" fill="#531e4c"/>
  <path d="M576.5,44.05c3.69.27,10.75,1.42,14.52,2.48,16.7,4.66,22.86,20.52,17.45,36.5-1.42,4.2-6.93,11.19-10.73,13.31-1.6.89-11.82,3.71-13.24,3.71h-42.5v-54.5l1.5-1.5h33Z" fill="#fefefe"/>
  <path d="M430,299.05v-15c6.43-.15,15.77-1,16.09,7.48.37,9.86-9.06,7.25-16.09,7.52Z" fill="#fefefe"/>
  <path d="M873.76,299.23c9.86-1.28,13.11,15.13,3.98,19.06-12.16,5.23-16.28-17.47-3.98-19.06Z" fill="#fefefe"/>
  <path d="M271,306.05h-16c1.47-9.5,14.57-9.45,16,0Z" fill="#fefefe"/>
  <path d="M167.73,299.22c12.48-2.71,15.88,18.38,2.69,19.82-10.97,1.2-13.13-17.56-2.69-19.82Z" fill="#fefefe"/>
  <path d="M569.74,299.24c9.93-1.91,14.36,13.04,6.22,18.27-12.67,8.14-20.02-15.62-6.22-18.27Z" fill="#fefefe"/>
  <path d="M84,311.05c1.2,6.03-4.26,9.08-9.39,10.06-1.45-3.15-6.67-3.63-3.68-7.63,2.63-3.52,9.18-2.26,13.07-2.43Z" fill="#fefefe"/>
</svg>